<svg width="16" height="16" viewBox="0 0 16 16" fill="none" xmlns="http://www.w3.org/2000/svg">
<path d="M0 12.8V3.19995H16V12.8H0Z" fill="#F4F4F4"/>
<path d="M16 3.93845H0V3.19995H16V3.93845Z" fill="#D81F26"/>
<path d="M16 6.15381H0V6.89228H16V6.15381Z" fill="#D81F26"/>
<path d="M16 4.67676H0V5.41523H16V4.67676Z" fill="#D81F26"/>
<path d="M16 8.3691H0.275874C0.123531 8.3691 0 8.25598 0 8.11646V7.63062H16V8.3691Z" fill="#D81F26"/>
<path d="M16 10.5847H0V11.3232H16V10.5847Z" fill="#D81F26"/>
<path d="M0 12.8V12.0615H16L16 12.8H0Z" fill="#D81F26"/>
<path d="M16 9.10767H0V9.84613H16V9.10767Z" fill="#D81F26"/>
<path d="M0 3.19995V8.53329H7.46667V3.19995H0Z" fill="#324095"/>
<path d="M0.774695 3.75059L0.835757 3.92761L1.02879 3.92903C1.05379 3.92924 1.06413 3.96005 1.04404 3.9744L0.888757 4.08527L0.947006 4.26316C0.954569 4.28618 0.927413 4.30527 0.907069 4.29119L0.750038 4.18272L0.593008 4.29122C0.572664 4.30527 0.54557 4.28621 0.55307 4.26319L0.61132 4.0853L0.456039 3.97443C0.435946 3.96005 0.44629 3.92927 0.471289 3.92906L0.66432 3.92764L0.725382 3.75062C0.733257 3.72766 0.766757 3.72766 0.774695 3.75059Z" fill="#F5F5F5"/>
<path d="M0.774695 4.67659L0.835757 4.85361L1.02879 4.85503C1.05379 4.85524 1.06413 4.88606 1.04404 4.9004L0.888757 5.01127L0.947006 5.18916C0.954569 5.21218 0.927413 5.23127 0.907069 5.2172L0.750038 5.10872L0.593008 5.21723C0.572664 5.23127 0.54557 5.21221 0.55307 5.18919L0.61132 5.0113L0.456039 4.90044C0.435946 4.88606 0.44629 4.85527 0.471289 4.85506L0.66432 4.85364L0.725382 4.67662C0.733257 4.6537 0.766757 4.6537 0.774695 4.67659Z" fill="#F5F5F5"/>
<path d="M0.774695 5.60262L0.835757 5.77964L1.02879 5.78106C1.05379 5.78127 1.06413 5.81208 1.04404 5.82643L0.888757 5.9373L0.947006 6.11519C0.954569 6.13821 0.927413 6.1573 0.907069 6.14323L0.750038 6.03475L0.593008 6.14326C0.572664 6.1573 0.54557 6.13824 0.55307 6.11522L0.61132 5.93733L0.456039 5.82646C0.435946 5.81208 0.44629 5.7813 0.471289 5.78109L0.66432 5.77967L0.725382 5.60265C0.733257 5.57972 0.766757 5.57972 0.774695 5.60262Z" fill="#F5F5F5"/>
<path d="M0.774695 6.52867L0.835757 6.70569L1.02879 6.70711C1.05379 6.70732 1.06413 6.73813 1.04404 6.75248L0.888757 6.86334L0.947006 7.04124C0.954569 7.06426 0.927413 7.08335 0.907069 7.06927L0.750038 6.96079L0.593008 7.0693C0.572664 7.08335 0.54557 7.06429 0.55307 7.04127L0.61132 6.86337L0.456039 6.75251C0.435946 6.73813 0.44629 6.70735 0.471289 6.70714L0.66432 6.70572L0.725382 6.5287C0.733257 6.50574 0.766757 6.50574 0.774695 6.52867Z" fill="#F5F5F5"/>
<path d="M0.774695 7.45471L0.835757 7.63174L1.02879 7.63316C1.05379 7.63337 1.06413 7.66418 1.04404 7.67853L0.888757 7.78939L0.947006 7.96729C0.954569 7.99031 0.927413 8.0094 0.907069 7.99532L0.750038 7.88685L0.593008 7.99535C0.572664 8.0094 0.54557 7.99034 0.55307 7.96732L0.61132 7.78942L0.456039 7.67856C0.435946 7.66418 0.44629 7.6334 0.471289 7.63319L0.66432 7.63177L0.725382 7.45475C0.733257 7.43176 0.766757 7.43176 0.774695 7.45471Z" fill="#F5F5F5"/>
<path d="M1.51823 4.20467L1.57929 4.38169L1.77232 4.38311C1.79732 4.38332 1.80766 4.41414 1.78757 4.42848L1.63229 4.53935L1.69054 4.71724C1.6981 4.74026 1.67094 4.75935 1.6506 4.74528L1.49357 4.63677L1.33654 4.74528C1.31619 4.75932 1.2891 4.74026 1.2966 4.71724L1.35485 4.53935L1.19957 4.42848C1.17948 4.41411 1.18982 4.38332 1.21482 4.38311L1.40785 4.38169L1.46891 4.20467C1.47676 4.18178 1.51032 4.18178 1.51823 4.20467Z" fill="#F5F5F5"/>
<path d="M1.51823 5.13048L1.57929 5.30749L1.77232 5.30891C1.79732 5.30913 1.80766 5.33994 1.78757 5.35429L1.63229 5.46515L1.69054 5.64304C1.6981 5.66606 1.67094 5.68515 1.6506 5.67108L1.49357 5.56257L1.33654 5.67108C1.31619 5.68512 1.2891 5.66609 1.2966 5.64304L1.35485 5.46515L1.19957 5.35429C1.17948 5.33991 1.18982 5.30913 1.21482 5.30891L1.40785 5.30749L1.46891 5.13048C1.47676 5.10755 1.51032 5.10755 1.51823 5.13048Z" fill="#F5F5F5"/>
<path d="M1.51823 6.0565L1.57929 6.23352L1.77232 6.23494C1.79732 6.23515 1.80766 6.26597 1.78757 6.28031L1.63229 6.39118L1.69054 6.56907C1.6981 6.59209 1.67094 6.61118 1.6506 6.59711L1.49357 6.4886L1.33654 6.59711C1.31619 6.61115 1.2891 6.59209 1.2966 6.56907L1.35485 6.39118L1.19957 6.28031C1.17948 6.26594 1.18982 6.23515 1.21482 6.23494L1.40785 6.23352L1.46891 6.0565C1.47676 6.03357 1.51032 6.03357 1.51823 6.0565Z" fill="#F5F5F5"/>
<path d="M1.51823 6.98251L1.57929 7.15953L1.77232 7.16094C1.79732 7.16116 1.80766 7.19197 1.78757 7.20632L1.63229 7.31718L1.69054 7.49508C1.6981 7.5181 1.67094 7.53719 1.6506 7.52311L1.49357 7.4146L1.33654 7.52311C1.31619 7.53716 1.2891 7.5181 1.2966 7.49508L1.35485 7.31718L1.19957 7.20632C1.17948 7.19194 1.18982 7.16116 1.21482 7.16094L1.40785 7.15953L1.46891 6.98251C1.47676 6.95961 1.51032 6.95961 1.51823 6.98251Z" fill="#F5F5F5"/>
<path d="M2.26176 3.75059L2.32282 3.92761L2.51585 3.92903C2.54085 3.92924 2.5512 3.96006 2.5311 3.9744L2.37582 4.08527L2.43407 4.26316C2.44163 4.28618 2.41448 4.30527 2.39413 4.2912L2.2371 4.18269L2.08007 4.2912C2.05973 4.30524 2.03263 4.28618 2.04013 4.26316L2.09838 4.08527L1.9431 3.9744C1.92301 3.96003 1.93335 3.92924 1.95835 3.92903L2.15138 3.92761L2.21244 3.75059C2.22032 3.72767 2.25385 3.72767 2.26176 3.75059Z" fill="#F5F5F5"/>
<path d="M2.26176 4.6766L2.32282 4.85362L2.51585 4.85504C2.54085 4.85525 2.5512 4.88606 2.5311 4.90041L2.37582 5.01127L2.43407 5.18917C2.44163 5.21219 2.41448 5.23128 2.39413 5.2172L2.2371 5.10869L2.08007 5.2172C2.05973 5.23125 2.03263 5.21219 2.04013 5.18917L2.09838 5.01127L1.9431 4.90041C1.92301 4.88603 1.93335 4.85525 1.95835 4.85504L2.15138 4.85362L2.21244 4.6766C2.22032 4.6537 2.25385 4.6537 2.26176 4.6766Z" fill="#F5F5F5"/>
<path d="M2.26176 5.60262L2.32282 5.77964L2.51585 5.78106C2.54085 5.78128 2.5512 5.81209 2.5311 5.82644L2.37582 5.9373L2.43407 6.1152C2.44163 6.13822 2.41448 6.15731 2.39413 6.14323L2.2371 6.03472L2.08007 6.14323C2.05973 6.15728 2.03263 6.13822 2.04013 6.1152L2.09838 5.9373L1.9431 5.82644C1.92301 5.81206 1.93335 5.78128 1.95835 5.78106L2.15138 5.77964L2.21244 5.60262C2.22032 5.57972 2.25385 5.57972 2.26176 5.60262Z" fill="#F5F5F5"/>
<path d="M2.26176 6.52867L2.32282 6.70569L2.51585 6.70711C2.54085 6.70732 2.5512 6.73813 2.5311 6.75248L2.37582 6.86335L2.43407 7.04124C2.44163 7.06426 2.41448 7.08335 2.39413 7.06927L2.2371 6.96077L2.08007 7.06927C2.05973 7.08332 2.03263 7.06426 2.04013 7.04124L2.09838 6.86335L1.9431 6.75248C1.92301 6.7381 1.93335 6.70732 1.95835 6.70711L2.15138 6.70569L2.21244 6.52867C2.22032 6.50574 2.25385 6.50574 2.26176 6.52867Z" fill="#F5F5F5"/>
<path d="M2.26176 7.45472L2.32282 7.63174L2.51585 7.63316C2.54085 7.63337 2.5512 7.66418 2.5311 7.67853L2.37582 7.7894L2.43407 7.96729C2.44163 7.99031 2.41448 8.0094 2.39413 7.99533L2.2371 7.88682L2.08007 7.99533C2.05973 8.00937 2.03263 7.99031 2.04013 7.96729L2.09838 7.7894L1.9431 7.67853C1.92301 7.66415 1.93335 7.63337 1.95835 7.63316L2.15138 7.63174L2.21244 7.45472C2.22032 7.43176 2.25385 7.43176 2.26176 7.45472Z" fill="#F5F5F5"/>
<path d="M3.00529 4.20467L3.06635 4.38169L3.25938 4.38311C3.28438 4.38332 3.29472 4.41414 3.27463 4.42848L3.11935 4.53935L3.1776 4.71724C3.18516 4.74026 3.158 4.75935 3.13766 4.74528L2.98063 4.63677L2.8236 4.74528C2.80326 4.75932 2.77616 4.74026 2.78366 4.71724L2.84191 4.53935L2.68663 4.42848C2.66654 4.41411 2.67688 4.38332 2.70188 4.38311L2.89491 4.38169L2.95597 4.20467C2.96382 4.18178 2.99738 4.18178 3.00529 4.20467Z" fill="#F5F5F5"/>
<path d="M3.00529 5.13048L3.06635 5.30749L3.25938 5.30891C3.28438 5.30913 3.29472 5.33994 3.27463 5.35429L3.11935 5.46515L3.1776 5.64304C3.18516 5.66606 3.158 5.68515 3.13766 5.67108L2.98063 5.56257L2.8236 5.67108C2.80326 5.68512 2.77616 5.66609 2.78366 5.64304L2.84191 5.46515L2.68663 5.35429C2.66654 5.33991 2.67688 5.30913 2.70188 5.30891L2.89491 5.30749L2.95597 5.13048C2.96382 5.10755 2.99738 5.10755 3.00529 5.13048Z" fill="#F5F5F5"/>
<path d="M3.00529 6.0565L3.06635 6.23352L3.25938 6.23494C3.28438 6.23515 3.29472 6.26597 3.27463 6.28031L3.11935 6.39118L3.1776 6.56907C3.18516 6.59209 3.158 6.61118 3.13766 6.59711L2.98063 6.4886L2.8236 6.59711C2.80326 6.61115 2.77616 6.59209 2.78366 6.56907L2.84191 6.39118L2.68663 6.28031C2.66654 6.26594 2.67688 6.23515 2.70188 6.23494L2.89491 6.23352L2.95597 6.0565C2.96382 6.03357 2.99738 6.03357 3.00529 6.0565Z" fill="#F5F5F5"/>
<path d="M3.00529 6.98251L3.06635 7.15953L3.25938 7.16094C3.28438 7.16116 3.29472 7.19197 3.27463 7.20632L3.11935 7.31718L3.1776 7.49508C3.18516 7.5181 3.158 7.53719 3.13766 7.52311L2.98063 7.4146L2.8236 7.52311C2.80326 7.53716 2.77616 7.5181 2.78366 7.49508L2.84191 7.31718L2.68663 7.20632C2.66654 7.19194 2.67688 7.16116 2.70188 7.16094L2.89491 7.15953L2.95597 6.98251C2.96382 6.95961 2.99738 6.95961 3.00529 6.98251Z" fill="#F5F5F5"/>
<path d="M3.74885 3.75059L3.80991 3.92761L4.00294 3.92903C4.02794 3.92924 4.03829 3.96006 4.01819 3.9744L3.86291 4.08527L3.92116 4.26316C3.92872 4.28618 3.90157 4.30527 3.88122 4.2912L3.72416 4.18269L3.56713 4.2912C3.54679 4.30524 3.51969 4.28618 3.52719 4.26316L3.58544 4.08527L3.43016 3.9744C3.41007 3.96003 3.42041 3.92924 3.44541 3.92903L3.63844 3.92761L3.6995 3.75059C3.70741 3.72767 3.74094 3.72767 3.74885 3.75059Z" fill="#F5F5F5"/>
<path d="M3.74885 4.6766L3.80991 4.85362L4.00294 4.85504C4.02794 4.85525 4.03829 4.88606 4.01819 4.90041L3.86291 5.01127L3.92116 5.18917C3.92872 5.21219 3.90157 5.23128 3.88122 5.2172L3.72416 5.10869L3.56713 5.2172C3.54679 5.23125 3.51969 5.21219 3.52719 5.18917L3.58544 5.01127L3.43016 4.90041C3.41007 4.88603 3.42041 4.85525 3.44541 4.85504L3.63844 4.85362L3.6995 4.6766C3.70741 4.6537 3.74094 4.6537 3.74885 4.6766Z" fill="#F5F5F5"/>
<path d="M3.74885 5.60262L3.80991 5.77964L4.00294 5.78106C4.02794 5.78128 4.03829 5.81209 4.01819 5.82644L3.86291 5.9373L3.92116 6.1152C3.92872 6.13822 3.90157 6.15731 3.88122 6.14323L3.72416 6.03472L3.56713 6.14323C3.54679 6.15728 3.51969 6.13822 3.52719 6.1152L3.58544 5.9373L3.43016 5.82644C3.41007 5.81206 3.42041 5.78128 3.44541 5.78106L3.63844 5.77964L3.6995 5.60262C3.70741 5.57972 3.74094 5.57972 3.74885 5.60262Z" fill="#F5F5F5"/>
<path d="M3.74885 6.52867L3.80991 6.70569L4.00294 6.70711C4.02794 6.70732 4.03829 6.73813 4.01819 6.75248L3.86291 6.86335L3.92116 7.04124C3.92872 7.06426 3.90157 7.08335 3.88122 7.06927L3.72416 6.96077L3.56713 7.06927C3.54679 7.08332 3.51969 7.06426 3.52719 7.04124L3.58544 6.86335L3.43016 6.75248C3.41007 6.7381 3.42041 6.70732 3.44541 6.70711L3.63844 6.70569L3.6995 6.52867C3.70741 6.50574 3.74094 6.50574 3.74885 6.52867Z" fill="#F5F5F5"/>
<path d="M3.74885 7.45472L3.80991 7.63174L4.00294 7.63316C4.02794 7.63337 4.03829 7.66418 4.01819 7.67853L3.86291 7.7894L3.92116 7.96729C3.92872 7.99031 3.90157 8.0094 3.88122 7.99533L3.72416 7.88682L3.56713 7.99533C3.54679 8.00937 3.51969 7.99031 3.52719 7.96729L3.58544 7.7894L3.43016 7.67853C3.41007 7.66415 3.42041 7.63337 3.44541 7.63316L3.63844 7.63174L3.6995 7.45472C3.70741 7.43176 3.74094 7.43176 3.74885 7.45472Z" fill="#F5F5F5"/>
<path d="M4.49235 4.20467L4.55341 4.38169L4.74644 4.38311C4.77144 4.38332 4.78179 4.41414 4.76169 4.42848L4.60641 4.53935L4.66466 4.71724C4.67222 4.74026 4.64507 4.75935 4.62472 4.74528L4.46769 4.63677L4.31066 4.74528C4.29032 4.75932 4.26322 4.74026 4.27072 4.71724L4.32897 4.53935L4.17369 4.42848C4.1536 4.41411 4.16394 4.38332 4.18894 4.38311L4.38197 4.38169L4.44304 4.20467C4.45094 4.18178 4.48444 4.18178 4.49235 4.20467Z" fill="#F5F5F5"/>
<path d="M4.49235 5.13048L4.55341 5.30749L4.74644 5.30891C4.77144 5.30913 4.78179 5.33994 4.76169 5.35429L4.60641 5.46515L4.66466 5.64304C4.67222 5.66606 4.64507 5.68515 4.62472 5.67108L4.46769 5.56257L4.31066 5.67108C4.29032 5.68512 4.26322 5.66609 4.27072 5.64304L4.32897 5.46515L4.17369 5.35429C4.1536 5.33991 4.16394 5.30913 4.18894 5.30891L4.38197 5.30749L4.44304 5.13048C4.45094 5.10755 4.48444 5.10755 4.49235 5.13048Z" fill="#F5F5F5"/>
<path d="M4.49235 6.0565L4.55341 6.23352L4.74644 6.23494C4.77144 6.23515 4.78179 6.26597 4.76169 6.28031L4.60641 6.39118L4.66466 6.56907C4.67222 6.59209 4.64507 6.61118 4.62472 6.59711L4.46769 6.4886L4.31066 6.59711C4.29032 6.61115 4.26322 6.59209 4.27072 6.56907L4.32897 6.39118L4.17369 6.28031C4.1536 6.26594 4.16394 6.23515 4.18894 6.23494L4.38197 6.23352L4.44304 6.0565C4.45094 6.03357 4.48444 6.03357 4.49235 6.0565Z" fill="#F5F5F5"/>
<path d="M4.49235 6.98251L4.55341 7.15953L4.74644 7.16094C4.77144 7.16116 4.78179 7.19197 4.76169 7.20632L4.60641 7.31718L4.66466 7.49508C4.67222 7.5181 4.64507 7.53719 4.62472 7.52311L4.46769 7.4146L4.31066 7.52311C4.29032 7.53716 4.26322 7.5181 4.27072 7.49508L4.32897 7.31718L4.17369 7.20632C4.1536 7.19194 4.16394 7.16116 4.18894 7.16094L4.38197 7.15953L4.44304 6.98251C4.45094 6.95961 4.48444 6.95961 4.49235 6.98251Z" fill="#F5F5F5"/>
<path d="M5.23588 3.75059L5.29694 3.92761L5.48997 3.92903C5.51497 3.92924 5.52532 3.96006 5.50522 3.9744L5.34994 4.08527L5.40819 4.26316C5.41575 4.28618 5.3886 4.30527 5.36825 4.2912L5.21122 4.18269L5.05419 4.2912C5.03385 4.30524 5.00675 4.28618 5.01425 4.26316L5.0725 4.08527L4.91722 3.9744C4.89713 3.96003 4.90747 3.92924 4.93247 3.92903L5.1255 3.92761L5.18657 3.75059C5.19441 3.72767 5.22797 3.72767 5.23588 3.75059Z" fill="#F5F5F5"/>
<path d="M5.23588 4.6766L5.29694 4.85362L5.48997 4.85504C5.51497 4.85525 5.52532 4.88606 5.50522 4.90041L5.34994 5.01127L5.40819 5.18917C5.41575 5.21219 5.3886 5.23128 5.36825 5.2172L5.21122 5.10869L5.05419 5.2172C5.03385 5.23125 5.00675 5.21219 5.01425 5.18917L5.0725 5.01127L4.91722 4.90041C4.89713 4.88603 4.90747 4.85525 4.93247 4.85504L5.1255 4.85362L5.18657 4.6766C5.19441 4.6537 5.22797 4.6537 5.23588 4.6766Z" fill="#F5F5F5"/>
<path d="M5.23588 5.60262L5.29694 5.77964L5.48997 5.78106C5.51497 5.78128 5.52532 5.81209 5.50522 5.82644L5.34994 5.9373L5.40819 6.1152C5.41575 6.13822 5.3886 6.15731 5.36825 6.14323L5.21122 6.03472L5.05419 6.14323C5.03385 6.15728 5.00675 6.13822 5.01425 6.1152L5.0725 5.9373L4.91722 5.82644C4.89713 5.81206 4.90747 5.78128 4.93247 5.78106L5.1255 5.77964L5.18657 5.60262C5.19441 5.57972 5.22797 5.57972 5.23588 5.60262Z" fill="#F5F5F5"/>
<path d="M5.23588 6.52867L5.29694 6.70569L5.48997 6.70711C5.51497 6.70732 5.52532 6.73813 5.50522 6.75248L5.34994 6.86335L5.40819 7.04124C5.41575 7.06426 5.3886 7.08335 5.36825 7.06927L5.21122 6.96077L5.05419 7.06927C5.03385 7.08332 5.00675 7.06426 5.01425 7.04124L5.0725 6.86335L4.91722 6.75248C4.89713 6.7381 4.90747 6.70732 4.93247 6.70711L5.1255 6.70569L5.18657 6.52867C5.19441 6.50574 5.22797 6.50574 5.23588 6.52867Z" fill="#F5F5F5"/>
<path d="M5.23588 7.45472L5.29694 7.63174L5.48997 7.63316C5.51497 7.63337 5.52532 7.66418 5.50522 7.67853L5.34994 7.7894L5.40819 7.96729C5.41575 7.99031 5.3886 8.0094 5.36825 7.99533L5.21122 7.88682L5.05419 7.99533C5.03385 8.00937 5.00675 7.99031 5.01425 7.96729L5.0725 7.7894L4.91722 7.67853C4.89713 7.66415 4.90747 7.63337 4.93247 7.63316L5.1255 7.63174L5.18657 7.45472C5.19441 7.43176 5.22797 7.43176 5.23588 7.45472Z" fill="#F5F5F5"/>
<path d="M5.97941 4.20467L6.04047 4.38169L6.2335 4.38311C6.2585 4.38332 6.26884 4.41414 6.24875 4.42848L6.09347 4.53935L6.15172 4.71724C6.15928 4.74026 6.13212 4.75935 6.11178 4.74528L5.95475 4.63677L5.79772 4.74528C5.77738 4.75932 5.75028 4.74026 5.75778 4.71724L5.81603 4.53935L5.66075 4.42848C5.64066 4.41411 5.651 4.38332 5.676 4.38311L5.86903 4.38169L5.93009 4.20467C5.93797 4.18178 5.97153 4.18178 5.97941 4.20467Z" fill="#F5F5F5"/>
<path d="M5.97941 5.13048L6.04047 5.30749L6.2335 5.30891C6.2585 5.30913 6.26884 5.33994 6.24875 5.35429L6.09347 5.46515L6.15172 5.64304C6.15928 5.66606 6.13212 5.68515 6.11178 5.67108L5.95475 5.56257L5.79772 5.67108C5.77738 5.68512 5.75028 5.66609 5.75778 5.64304L5.81603 5.46515L5.66075 5.35429C5.64066 5.33991 5.651 5.30913 5.676 5.30891L5.86903 5.30749L5.93009 5.13048C5.93797 5.10755 5.97153 5.10755 5.97941 5.13048Z" fill="#F5F5F5"/>
<path d="M5.97941 6.0565L6.04047 6.23352L6.2335 6.23494C6.2585 6.23515 6.26884 6.26597 6.24875 6.28031L6.09347 6.39118L6.15172 6.56907C6.15928 6.59209 6.13212 6.61118 6.11178 6.59711L5.95475 6.4886L5.79772 6.59711C5.77738 6.61115 5.75028 6.59209 5.75778 6.56907L5.81603 6.39118L5.66075 6.28031C5.64066 6.26594 5.651 6.23515 5.676 6.23494L5.86903 6.23352L5.93009 6.0565C5.93797 6.03357 5.97153 6.03357 5.97941 6.0565Z" fill="#F5F5F5"/>
<path d="M5.97941 6.98251L6.04047 7.15953L6.2335 7.16094C6.2585 7.16116 6.26884 7.19197 6.24875 7.20632L6.09347 7.31718L6.15172 7.49508C6.15928 7.5181 6.13212 7.53719 6.11178 7.52311L5.95475 7.4146L5.79772 7.52311C5.77738 7.53716 5.75028 7.5181 5.75778 7.49508L5.81603 7.31718L5.66075 7.20632C5.64066 7.19194 5.651 7.16116 5.676 7.16094L5.86903 7.15953L5.93009 6.98251C5.93797 6.95961 5.97153 6.95961 5.97941 6.98251Z" fill="#F5F5F5"/>
<path d="M6.72306 3.75059L6.78412 3.92761L6.97715 3.92903C7.00215 3.92924 7.0125 3.96006 6.9924 3.9744L6.83712 4.08527L6.89537 4.26316C6.90293 4.28618 6.87578 4.30527 6.85543 4.2912L6.6984 4.18269L6.54137 4.2912C6.52103 4.30524 6.49394 4.28618 6.50144 4.26316L6.55968 4.08527L6.4044 3.9744C6.38431 3.96003 6.39465 3.92924 6.41965 3.92903L6.61268 3.92761L6.67375 3.75059C6.68162 3.72767 6.71512 3.72767 6.72306 3.75059Z" fill="#F5F5F5"/>
<path d="M6.72306 4.6766L6.78412 4.85362L6.97715 4.85504C7.00215 4.85525 7.0125 4.88606 6.9924 4.90041L6.83712 5.01127L6.89537 5.18917C6.90293 5.21219 6.87578 5.23128 6.85543 5.2172L6.6984 5.10869L6.54137 5.2172C6.52103 5.23125 6.49394 5.21219 6.50144 5.18917L6.55968 5.01127L6.4044 4.90041C6.38431 4.88603 6.39465 4.85525 6.41965 4.85504L6.61268 4.85362L6.67375 4.6766C6.68162 4.6537 6.71512 4.6537 6.72306 4.6766Z" fill="#F5F5F5"/>
<path d="M6.72306 5.60262L6.78412 5.77964L6.97715 5.78106C7.00215 5.78128 7.0125 5.81209 6.9924 5.82644L6.83712 5.9373L6.89537 6.1152C6.90293 6.13822 6.87578 6.15731 6.85543 6.14323L6.6984 6.03472L6.54137 6.14323C6.52103 6.15728 6.49394 6.13822 6.50144 6.1152L6.55968 5.9373L6.4044 5.82644C6.38431 5.81206 6.39465 5.78128 6.41965 5.78106L6.61268 5.77964L6.67375 5.60262C6.68162 5.57972 6.71512 5.57972 6.72306 5.60262Z" fill="#F5F5F5"/>
<path d="M6.72306 6.52867L6.78412 6.70569L6.97715 6.70711C7.00215 6.70732 7.0125 6.73813 6.9924 6.75248L6.83712 6.86335L6.89537 7.04124C6.90293 7.06426 6.87578 7.08335 6.85543 7.06927L6.6984 6.96077L6.54137 7.06927C6.52103 7.08332 6.49394 7.06426 6.50144 7.04124L6.55968 6.86335L6.4044 6.75248C6.38431 6.7381 6.39465 6.70732 6.41965 6.70711L6.61268 6.70569L6.67375 6.52867C6.68162 6.50574 6.71512 6.50574 6.72306 6.52867Z" fill="#F5F5F5"/>
<path d="M6.72306 7.45472L6.78412 7.63174L6.97715 7.63316C7.00215 7.63337 7.0125 7.66418 6.9924 7.67853L6.83712 7.7894L6.89537 7.96729C6.90293 7.99031 6.87578 8.0094 6.85543 7.99533L6.6984 7.88682L6.54137 7.99533C6.52103 8.00937 6.49394 7.99031 6.50144 7.96729L6.55968 7.7894L6.4044 7.67853C6.38431 7.66415 6.39465 7.63337 6.41965 7.63316L6.61268 7.63174L6.67375 7.45472C6.68162 7.43176 6.71512 7.43176 6.72306 7.45472Z" fill="#F5F5F5"/>
</svg>
